<svg width="48" height="48" viewBox="0 0 64 64" fill="none" xmlns="http://www.w3.org/2000/svg">
    <path fill-rule="evenodd" clip-rule="evenodd"
          d="M20.8019 30.285C19.5073 31.0618 19.5073 32.9382 20.8019 33.715L32.682 40.843C33.7021 41.4551 35 40.7203 35 39.5306C35 37.5807 36.5807 36 38.5305 36H45C46.1045 36 47 35.1046 47 34V29.5C47 28.3954 46.1045 27.5 45 27.5H38.3498C36.4997 27.5 35 26.0002 35 24.1502C35 23.101 33.8554 22.453 32.9557 22.9928L20.8019 30.285ZM19.773 35.43C17.1836 33.8764 17.1836 30.1236 19.7729 28.57L31.9267 21.2778C34.1594 19.9381 37 21.5464 37 24.1502C37 24.8957 37.6043 25.5 38.3498 25.5H45C47.2091 25.5 49 27.2909 49 29.5V34C49 36.2091 47.2091 38 45 38H38.5305C37.6852 38 37 38.6853 37 39.5306C37 42.2748 34.0062 43.9699 31.653 42.558L19.773 35.43Z"
          fill="black"/>
</svg>
